<svg width="54" height="107" viewBox="0 0 54 107" fill="none" xmlns="http://www.w3.org/2000/svg">
<path d="M15.9117 15.5804L15.2125 16.2954L15.9117 15.5804ZM46 87.0811L47 87.0812L46 87.0811ZM45.2929 106.707C45.6834 107.098 46.3166 107.098 46.7071 106.707L53.071 100.343C53.4616 99.9527 53.4616 99.3195 53.071 98.929C52.6805 98.5385 52.0474 98.5385 51.6568 98.929L46 104.586L40.3431 98.929C39.9526 98.5385 39.3194 98.5385 38.9289 98.929C38.5384 99.3195 38.5384 99.9527 38.9289 100.343L45.2929 106.707ZM0.999978 1.00006L0.30086 1.71507L1.5435 2.93009L2.24262 2.21509L2.94174 1.50008L1.6991 0.285054L0.999978 1.00006ZM4.7279 4.64513L4.02878 5.36014L6.51406 7.79019L7.21318 7.07518L7.9123 6.36018L5.42702 3.93013L4.7279 4.64513ZM9.69846 9.50523L8.99935 10.2202L11.4846 12.6503L12.1837 11.9353L12.8829 11.2203L10.3976 8.79022L9.69846 9.50523ZM14.669 14.3653L13.9699 15.0803L15.2125 16.2954L15.9117 15.5804L16.6108 14.8653L15.3681 13.6503L14.669 14.3653ZM15.9117 15.5804L15.2125 16.2954C15.6831 16.7554 16.1485 17.2197 16.6089 17.6881L17.3221 16.9872L18.0353 16.2862C17.5657 15.8083 17.0908 15.3347 16.6108 14.8653L15.9117 15.5804ZM20.0569 19.8829L19.3164 20.5549C20.2011 21.5298 21.0647 22.5206 21.9072 23.5267L22.6739 22.8847L23.4406 22.2427C22.5811 21.2163 21.7 20.2054 20.7975 19.2109L20.0569 19.8829ZM25.1698 25.9891L24.3781 26.6C25.182 27.6418 25.9642 28.6984 26.7242 29.7689L27.5396 29.19L28.355 28.6111C27.5796 27.5189 26.7817 26.441 25.9615 25.3782L25.1698 25.9891ZM29.7802 32.4829L28.9424 33.0289C29.6606 34.131 30.3562 35.2465 31.0289 36.3747L31.8878 35.8625L32.7467 35.3504C32.0604 34.1994 31.3507 33.0614 30.618 31.937L29.7802 32.4829ZM33.859 39.3232L32.9804 39.8007C33.6084 40.9561 34.2131 42.1234 34.7942 43.302L35.6911 42.8598L36.588 42.4176C35.9952 41.2152 35.3783 40.0243 34.7376 38.8456L33.859 39.3232ZM37.3808 46.4665L36.467 46.8726C37.0008 48.0738 37.5107 49.2855 37.9964 50.507L38.9256 50.1375L39.8549 49.7681C39.3594 48.5219 38.8392 47.2858 38.2946 46.0603L37.3808 46.4665ZM40.3231 53.8672L39.3799 54.1993C39.8163 55.4388 40.2283 56.6872 40.6153 57.944L41.571 57.6496L42.5267 57.3553C42.1318 56.0731 41.7116 54.7995 41.2663 53.535L40.3231 53.8672ZM42.6673 61.4785L41.7006 61.7345C42.0369 63.0042 42.3482 64.2815 42.6341 65.5655L43.6102 65.3482L44.5863 65.1308C44.2946 63.8208 43.9771 62.5178 43.6339 61.2224L42.6673 61.4785ZM44.3983 69.2524L43.4143 69.4307C43.6484 70.7225 43.857 72.0204 44.0399 73.3235L45.0302 73.1846L46.0205 73.0456C45.8339 71.7161 45.6211 70.392 45.3823 69.0741L44.3983 69.2524ZM45.5049 77.1395L44.5099 77.2389C44.6403 78.5446 44.7449 79.8549 44.8235 81.169L45.8217 81.1093L46.8199 81.0496C46.7398 79.709 46.633 78.3722 46.5 77.0402L45.5049 77.1395ZM45.9802 85.0892L44.9804 85.1091C44.9934 85.7657 45 86.4231 45 87.0811L46 87.0811L47 87.0812C47 86.4098 46.9933 85.7391 46.98 85.0693L45.9802 85.0892ZM46 87.0811L45 87.0811L45 89.446L46 89.446L47 89.446L47 87.0812L46 87.0811ZM46 94.1757L45 94.1757L45 98.9055L46 98.9055L47 98.9055L47 94.1757L46 94.1757ZM46 103.635L45 103.635L45 106L46 106L47 106L47 103.635L46 103.635ZM15.9117 15.5804L15.2125 16.2954L15.9117 15.5804ZM46 87.0811L47 87.0812L46 87.0811ZM45.2929 106.707C45.6834 107.098 46.3166 107.098 46.7071 106.707L53.071 100.343C53.4616 99.9527 53.4616 99.3195 53.071 98.929C52.6805 98.5385 52.0474 98.5385 51.6568 98.929L46 104.586L40.3431 98.929C39.9526 98.5385 39.3194 98.5385 38.9289 98.929C38.5384 99.3195 38.5384 99.9527 38.9289 100.343L45.2929 106.707ZM0.999978 1.00006L0.30086 1.71507L1.5435 2.93009L2.24262 2.21509L2.94174 1.50008L1.6991 0.285054L0.999978 1.00006ZM4.7279 4.64513L4.02878 5.36014L6.51406 7.79019L7.21318 7.07518L7.9123 6.36018L5.42702 3.93013L4.7279 4.64513ZM9.69846 9.50523L8.99935 10.2202L11.4846 12.6503L12.1837 11.9353L12.8829 11.2203L10.3976 8.79022L9.69846 9.50523ZM14.669 14.3653L13.9699 15.0803L15.2125 16.2954L15.9117 15.5804L16.6108 14.8653L15.3681 13.6503L14.669 14.3653ZM15.9117 15.5804L15.2125 16.2954C15.6831 16.7554 16.1485 17.2197 16.6089 17.6881L17.3221 16.9872L18.0353 16.2862C17.5657 15.8083 17.0908 15.3347 16.6108 14.8653L15.9117 15.5804ZM20.0569 19.8829L19.3164 20.5549C20.2011 21.5298 21.0647 22.5206 21.9072 23.5267L22.6739 22.8847L23.4406 22.2427C22.5811 21.2163 21.7 20.2054 20.7975 19.2109L20.0569 19.8829ZM25.1698 25.9891L24.3781 26.6C25.182 27.6418 25.9642 28.6984 26.7242 29.7689L27.5396 29.19L28.355 28.6111C27.5796 27.5189 26.7817 26.441 25.9615 25.3782L25.1698 25.9891ZM29.7802 32.4829L28.9424 33.0289C29.6606 34.131 30.3562 35.2465 31.0289 36.3747L31.8878 35.8625L32.7467 35.3504C32.0604 34.1994 31.3507 33.0614 30.618 31.937L29.7802 32.4829ZM33.859 39.3232L32.9804 39.8007C33.6084 40.9561 34.2131 42.1234 34.7942 43.302L35.6911 42.8598L36.588 42.4176C35.9952 41.2152 35.3783 40.0243 34.7376 38.8456L33.859 39.3232ZM37.3808 46.4665L36.467 46.8726C37.0008 48.0738 37.5107 49.2855 37.9964 50.507L38.9256 50.1375L39.8549 49.7681C39.3594 48.5219 38.8392 47.2858 38.2946 46.0603L37.3808 46.4665ZM40.3231 53.8672L39.3799 54.1993C39.8163 55.4388 40.2283 56.6872 40.6153 57.944L41.571 57.6496L42.5267 57.3553C42.1318 56.0731 41.7116 54.7995 41.2663 53.535L40.3231 53.8672ZM42.6673 61.4785L41.7006 61.7345C42.0369 63.0042 42.3482 64.2815 42.6341 65.5655L43.6102 65.3482L44.5863 65.1308C44.2946 63.8208 43.9771 62.5178 43.6339 61.2224L42.6673 61.4785ZM44.3983 69.2524L43.4143 69.4307C43.6484 70.7225 43.857 72.0204 44.0399 73.3235L45.0302 73.1846L46.0205 73.0456C45.8339 71.7161 45.6211 70.392 45.3823 69.0741L44.3983 69.2524ZM45.5049 77.1395L44.5099 77.2389C44.6403 78.5446 44.7449 79.8549 44.8235 81.169L45.8217 81.1093L46.8199 81.0496C46.7398 79.709 46.633 78.3722 46.5 77.0402L45.5049 77.1395ZM45.9802 85.0892L44.9804 85.1091C44.9934 85.7657 45 86.4231 45 87.0811L46 87.0811L47 87.0812C47 86.4098 46.9933 85.7391 46.98 85.0693L45.9802 85.0892ZM46 87.0811L45 87.0811L45 89.446L46 89.446L47 89.446L47 87.0812L46 87.0811ZM46 94.1757L45 94.1757L45 98.9055L46 98.9055L47 98.9055L47 94.1757L46 94.1757ZM46 103.635L45 103.635L45 106L46 106L47 106L47 103.635L46 103.635Z" fill="#1D3F72"/>
</svg>
