<svg width="69" height="144" viewBox="0 0 69 144" fill="none" xmlns="http://www.w3.org/2000/svg">
<path d="M34.9294 39.989L34.1665 39.3425L34.9294 39.989ZM11.6807 95.0313L10.6853 94.9352L11.6807 95.0313ZM7.72212 143.384C7.29587 143.735 6.66563 143.674 6.31445 143.248L0.591617 136.302C0.240434 135.876 0.301287 135.245 0.727536 134.894C1.15379 134.543 1.78402 134.604 2.13521 135.03L7.22217 141.204L13.3965 136.118C13.8228 135.766 14.453 135.827 14.8042 136.253C15.1554 136.68 15.0945 137.31 14.6683 137.661L7.72212 143.384ZM67.5777 1.46552L68.3405 2.11205L66.9802 3.7172L66.2173 3.07066L65.4544 2.42412L66.8148 0.81898L67.5777 1.46552ZM63.4966 6.28095L64.2595 6.92749L61.5388 10.1378L60.7759 9.49124L60.0131 8.8447L62.7337 5.63441L63.4966 6.28095ZM58.0552 12.7015L58.8181 13.3481L56.0974 16.5584L55.3346 15.9118L54.5717 15.2653L57.2924 12.055L58.0552 12.7015ZM52.6139 19.1221L53.3767 19.7686L50.6561 22.9789L49.8932 22.3324L49.1303 21.6859L51.851 18.4756L52.6139 19.1221ZM47.1725 25.5427L47.9354 26.1892L45.2147 29.3995L44.4518 28.753L43.6889 28.1064L46.4096 24.8962L47.1725 25.5427ZM41.7311 31.9633L42.494 32.6098L39.7733 35.8201L39.0104 35.1736L38.2475 34.527L40.9682 31.3167L41.7311 31.9633ZM36.2897 38.3838L37.0526 39.0304L35.6923 40.6355L34.9294 39.989L34.1665 39.3425L35.5268 37.7373L36.2897 38.3838ZM34.9294 39.989L35.6923 40.6355C35.2874 41.1132 34.8874 41.5944 34.4922 42.079L33.7172 41.4471L32.9422 40.8151C33.3454 40.3207 33.7535 39.8298 34.1665 39.3425L34.9294 39.989ZM31.3769 44.4309L32.1753 45.033C31.4209 46.0333 30.6864 47.0467 29.972 48.0727L29.1514 47.5013L28.3307 46.9298C29.0595 45.8832 29.8089 44.8493 30.5785 43.8288L31.3769 44.4309ZM27.0439 50.6538L27.8856 51.1937C27.2095 52.2479 26.5539 53.3141 25.9191 54.3916L25.0575 53.884L24.1959 53.3764C24.8435 52.2771 25.5124 51.1894 26.2022 50.1139L27.0439 50.6538ZM23.195 57.1872L24.0752 57.6618C23.4811 58.7638 22.9082 59.8766 22.3567 60.9995L21.4591 60.5587L20.5615 60.1178C21.1241 58.9722 21.7087 57.8369 22.3148 56.7127L23.195 57.1872ZM19.8522 63.9935L20.7659 64.4C20.2572 65.5434 19.7702 66.6964 19.3051 67.8584L18.3767 67.4868L17.4483 67.1152C17.9227 65.9299 18.4196 64.7536 18.9386 63.587L19.8522 63.9935ZM17.0347 71.0335L17.9766 71.3696C17.5561 72.5479 17.1578 73.7345 16.7821 74.9287L15.8282 74.6285L14.8743 74.3284C15.2576 73.11 15.6639 71.8995 16.0929 70.6974L17.0347 71.0335ZM14.7588 78.2667L15.7233 78.5305C15.3935 79.7368 15.0863 80.9502 14.802 82.1698L13.8281 81.9429L12.8542 81.7159C13.1442 80.4715 13.4576 79.2337 13.7942 78.003L14.7588 78.2667ZM13.0375 85.6516L14.0193 85.8415C13.7819 87.0689 13.5675 88.3021 13.3764 89.5403L12.3881 89.3877L11.3998 89.2352C11.5947 87.972 11.8135 86.7139 12.0557 85.4617L13.0375 85.6516ZM11.8808 93.1458L12.8742 93.2607C12.8023 93.8819 12.7362 94.5041 12.676 95.1274L11.6807 95.0313L10.6853 94.9352C10.7467 94.2993 10.8141 93.6645 10.8874 93.0308L11.8808 93.1458ZM11.6807 95.0313L12.676 95.1274L12.4846 97.11L11.4892 97.0138L10.4939 96.9177L10.6853 94.9352L11.6807 95.0313ZM11.1064 100.979L12.1017 101.075L11.7189 105.04L10.7235 104.944L9.72812 104.848L10.111 100.883L11.1064 100.979ZM10.3406 108.909L11.336 109.005L10.9531 112.97L9.95775 112.874L8.96238 112.778L9.34525 108.813L10.3406 108.909ZM9.57489 116.839L10.5703 116.935L10.1874 120.9L9.19202 120.804L8.19665 120.708L8.57952 116.743L9.57489 116.839ZM8.80915 124.769L9.80452 124.865L9.42166 128.831L8.42628 128.734L7.43091 128.638L7.81378 124.673L8.80915 124.769ZM8.04342 132.699L9.03878 132.796L8.65592 136.761L7.66055 136.665L6.66518 136.568L7.04805 132.603L8.04342 132.699ZM7.27768 140.63L8.27305 140.726L8.08162 142.708L7.08625 142.612L6.09088 142.516L6.28231 140.534L7.27768 140.63ZM34.9294 39.989L34.1665 39.3425L34.9294 39.989ZM11.6807 95.0313L10.6853 94.9352L11.6807 95.0313ZM7.72212 143.384C7.29587 143.735 6.66563 143.674 6.31445 143.248L0.591617 136.302C0.240434 135.876 0.301287 135.245 0.727536 134.894C1.15379 134.543 1.78402 134.604 2.13521 135.03L7.22217 141.204L13.3965 136.118C13.8228 135.766 14.453 135.827 14.8042 136.253C15.1554 136.68 15.0945 137.31 14.6683 137.661L7.72212 143.384ZM67.5777 1.46552L68.3405 2.11205L66.9802 3.7172L66.2173 3.07066L65.4544 2.42412L66.8148 0.81898L67.5777 1.46552ZM63.4966 6.28095L64.2595 6.92749L61.5388 10.1378L60.7759 9.49124L60.0131 8.8447L62.7337 5.63441L63.4966 6.28095ZM58.0552 12.7015L58.8181 13.3481L56.0974 16.5584L55.3346 15.9118L54.5717 15.2653L57.2924 12.055L58.0552 12.7015ZM52.6139 19.1221L53.3767 19.7686L50.6561 22.9789L49.8932 22.3324L49.1303 21.6859L51.851 18.4756L52.6139 19.1221ZM47.1725 25.5427L47.9354 26.1892L45.2147 29.3995L44.4518 28.753L43.6889 28.1064L46.4096 24.8962L47.1725 25.5427ZM41.7311 31.9633L42.494 32.6098L39.7733 35.8201L39.0104 35.1736L38.2475 34.527L40.9682 31.3167L41.7311 31.9633ZM36.2897 38.3838L37.0526 39.0304L35.6923 40.6355L34.9294 39.989L34.1665 39.3425L35.5268 37.7373L36.2897 38.3838ZM34.9294 39.989L35.6923 40.6355C35.2874 41.1132 34.8874 41.5944 34.4922 42.079L33.7172 41.4471L32.9422 40.8151C33.3454 40.3207 33.7535 39.8298 34.1665 39.3425L34.9294 39.989ZM31.3769 44.4309L32.1753 45.033C31.4209 46.0333 30.6864 47.0467 29.972 48.0727L29.1514 47.5013L28.3307 46.9298C29.0595 45.8832 29.8089 44.8493 30.5785 43.8288L31.3769 44.4309ZM27.0439 50.6538L27.8856 51.1937C27.2095 52.2479 26.5539 53.3141 25.9191 54.3916L25.0575 53.884L24.1959 53.3764C24.8435 52.2771 25.5124 51.1894 26.2022 50.1139L27.0439 50.6538ZM23.195 57.1872L24.0752 57.6618C23.4811 58.7638 22.9082 59.8766 22.3567 60.9995L21.4591 60.5587L20.5615 60.1178C21.1241 58.9722 21.7087 57.8369 22.3148 56.7127L23.195 57.1872ZM19.8522 63.9935L20.7659 64.4C20.2572 65.5434 19.7702 66.6964 19.3051 67.8584L18.3767 67.4868L17.4483 67.1152C17.9227 65.9299 18.4196 64.7536 18.9386 63.587L19.8522 63.9935ZM17.0347 71.0335L17.9766 71.3696C17.5561 72.5479 17.1578 73.7345 16.7821 74.9287L15.8282 74.6285L14.8743 74.3284C15.2576 73.11 15.6639 71.8995 16.0929 70.6974L17.0347 71.0335ZM14.7588 78.2667L15.7233 78.5305C15.3935 79.7368 15.0863 80.9502 14.802 82.1698L13.8281 81.9429L12.8542 81.7159C13.1442 80.4715 13.4576 79.2337 13.7942 78.003L14.7588 78.2667ZM13.0375 85.6516L14.0193 85.8415C13.7819 87.0689 13.5675 88.3021 13.3764 89.5403L12.3881 89.3877L11.3998 89.2352C11.5947 87.972 11.8135 86.7139 12.0557 85.4617L13.0375 85.6516ZM11.8808 93.1458L12.8742 93.2607C12.8023 93.8819 12.7362 94.5041 12.676 95.1274L11.6807 95.0313L10.6853 94.9352C10.7467 94.2993 10.8141 93.6645 10.8874 93.0308L11.8808 93.1458ZM11.6807 95.0313L12.676 95.1274L12.4846 97.11L11.4892 97.0138L10.4939 96.9177L10.6853 94.9352L11.6807 95.0313ZM11.1064 100.979L12.1017 101.075L11.7189 105.04L10.7235 104.944L9.72812 104.848L10.111 100.883L11.1064 100.979ZM10.3406 108.909L11.336 109.005L10.9531 112.97L9.95775 112.874L8.96238 112.778L9.34525 108.813L10.3406 108.909ZM9.57489 116.839L10.5703 116.935L10.1874 120.9L9.19202 120.804L8.19665 120.708L8.57952 116.743L9.57489 116.839ZM8.80915 124.769L9.80452 124.865L9.42166 128.831L8.42628 128.734L7.43091 128.638L7.81378 124.673L8.80915 124.769ZM8.04342 132.699L9.03878 132.796L8.65592 136.761L7.66055 136.665L6.66518 136.568L7.04805 132.603L8.04342 132.699ZM7.27768 140.63L8.27305 140.726L8.08162 142.708L7.08625 142.612L6.09088 142.516L6.28231 140.534L7.27768 140.63Z" fill="#1D3F72"/>
</svg>
